<svg width="594" height="691" viewBox="0 0 594 691" fill="none" xmlns="http://www.w3.org/2000/svg">
<path fill-rule="evenodd" clip-rule="evenodd" d="M577.29 546.902L593.314 688.847H444.654L577.29 546.902Z" fill="#B07C55"/>
<path fill-rule="evenodd" clip-rule="evenodd" d="M307.255 1.69336L495.889 101.922L0.893495 687.876L0.344727 687.455L83.4504 120.615L307.255 1.69336Z" fill="#AAA391"/>
<path fill-rule="evenodd" clip-rule="evenodd" d="M196.933 203.142L82.5398 119.92L307.357 0.304688L196.933 203.142Z" fill="#BCB6A4"/>
<path fill-rule="evenodd" clip-rule="evenodd" d="M530.605 121.23L574.107 511.755L408.639 688.086H48.0867L530.605 121.23Z" fill="#DAD4C1"/>
<path fill-rule="evenodd" clip-rule="evenodd" d="M50.3518 687.876L303.974 415.154L306.153 687.876H50.3518Z" fill="#C8BFB0"/>
<path fill-rule="evenodd" clip-rule="evenodd" d="M50.3518 686.257L183.09 537.352L306.153 686.257H50.3518Z" fill="#BBB6A5"/>
<path fill-rule="evenodd" clip-rule="evenodd" d="M531.652 119.346L391.198 317.119L50.0713 689.414L531.652 119.346Z" fill="#F0E9DD"/>
<path fill-rule="evenodd" clip-rule="evenodd" d="M306.151 0V325.584L197.246 455.616V204.76L306.151 0Z" fill="#C8C0B1"/>
<path fill-rule="evenodd" clip-rule="evenodd" d="M0 688.822L181.686 443.186L198.174 456.094L0 688.822Z" fill="#C6BEAE"/>
<path fill-rule="evenodd" clip-rule="evenodd" d="M394.825 222.389L181.36 443.292L197.923 456.114L394.825 222.389Z" fill="#C6BEAE"/>
<path fill-rule="evenodd" clip-rule="evenodd" d="M332.898 295.498L197.8 455.861L197.003 455.244L197.031 426.651L322.228 297.119L332.898 295.498Z" fill="#D5CCBF"/>
<path fill-rule="evenodd" clip-rule="evenodd" d="M498.34 99.5234L306.32 326.83V308.961L498.34 99.5234Z" fill="#E5DFD3"/>
<path fill-rule="evenodd" clip-rule="evenodd" d="M305.247 310.175L306.497 311.211L305.99 328.634L206.836 438.5L196.883 430.246L305.247 310.175Z" fill="#D6CCBF"/>
<path fill-rule="evenodd" clip-rule="evenodd" d="M576.947 547.347L534.203 638.632L444.682 690.077L576.947 547.347Z" fill="#C79263"/>
<path fill-rule="evenodd" clip-rule="evenodd" d="M445.448 689.494L534.159 639.32L592.343 689.494H445.448Z" fill="#8F6347"/>
</svg>
